<?xml version="1.0" standalone="no"?>
<!DOCTYPE svg PUBLIC "-//W3C//DTD SVG 20010904//EN"
 "http://www.w3.org/TR/2001/REC-SVG-20010904/DTD/svg10.dtd">
<svg version="1.0" xmlns="http://www.w3.org/2000/svg"
 width="1596.000000pt" height="780.000000pt" viewBox="0 0 1596.000000 780.000000"
 preserveAspectRatio="xMidYMid meet">

<g transform="translate(0.000000,780.000000) scale(0.100000,-0.100000)"
fill="#000000" stroke="none">
<path d="M5267 6545 c-10 -14 -24 -25 -32 -25 -22 0 -45 -41 -45 -83 0 -22
-10 -56 -24 -80 -13 -23 -31 -76 -40 -117 -9 -41 -24 -104 -32 -140 -14 -64
-37 -194 -54 -317 -14 -99 -79 -414 -95 -462 -8 -25 -15 -60 -15 -78 0 -18 -9
-67 -20 -107 -11 -41 -23 -99 -26 -130 -7 -59 -29 -92 -67 -101 -12 -2 -65
-11 -117 -19 -52 -8 -113 -20 -135 -26 -38 -11 -76 -19 -189 -39 -27 -4 -57
-6 -66 -4 -10 3 -21 0 -24 -6 -5 -7 -49 -11 -117 -11 l-109 0 -103 103 c-56
56 -123 125 -148 152 -26 28 -52 55 -58 60 -24 21 -89 112 -110 153 -21 41
-22 55 -19 205 l4 162 52 99 c29 55 56 104 61 110 4 6 11 25 15 41 4 17 26 58
49 92 35 52 47 63 70 63 31 0 122 35 147 56 9 8 34 20 55 27 22 8 81 33 130
57 157 73 250 65 339 -30 50 -53 87 -66 127 -45 13 8 36 11 52 8 26 -5 27 -4
27 33 0 57 -42 137 -107 206 -70 72 -111 95 -210 114 -102 19 -163 18 -225 -6
-29 -11 -72 -25 -96 -30 -80 -19 -216 -116 -312 -222 -90 -100 -185 -250 -197
-309 -3 -19 -12 -43 -20 -54 -7 -11 -13 -29 -13 -40 0 -12 -7 -30 -15 -41 -8
-10 -15 -32 -15 -47 0 -15 -10 -47 -21 -70 -23 -44 -44 -132 -54 -225 -9 -82
13 -167 62 -244 120 -183 203 -265 291 -282 60 -12 72 -25 47 -49 -19 -20 -19
-31 0 -47 24 -20 17 -49 -17 -70 -52 -32 -94 -41 -233 -50 -119 -8 -135 -11
-190 -41 -33 -18 -62 -35 -65 -39 -3 -3 -30 -7 -60 -8 -31 -1 -87 -9 -125 -17
-39 -8 -85 -15 -102 -15 -57 0 -196 -31 -261 -58 -51 -20 -62 -29 -59 -44 4
-14 0 -18 -21 -16 -46 3 -165 -73 -187 -119 -9 -18 -22 -33 -29 -33 -7 0 -27
-15 -44 -32 -17 -18 -54 -55 -82 -83 -80 -78 -152 -246 -155 -362 -1 -35 -7
-69 -14 -77 -16 -19 -3 -180 19 -232 23 -54 149 -180 232 -233 37 -24 72 -49
79 -57 6 -8 24 -14 39 -14 15 0 33 -7 40 -14 6 -8 35 -22 63 -31 29 -9 62 -21
73 -27 12 -5 35 -7 51 -4 16 4 52 2 79 -4 105 -24 343 -23 329 1 -4 5 -1 9 6
9 7 0 21 7 31 17 11 10 33 16 58 15 30 -1 40 2 40 13 0 17 -55 21 -65 5 -4 -6
-23 -7 -47 -3 -36 5 -40 4 -35 -10 4 -10 2 -17 -3 -17 -6 0 -10 -7 -10 -16 0
-13 -11 -14 -72 -8 -40 3 -77 10 -82 15 -6 5 -18 9 -28 9 -9 0 -34 11 -54 25
-41 28 -37 27 -147 27 -80 1 -103 11 -72 35 18 12 18 13 -3 13 -12 0 -22 4
-22 8 0 5 -11 14 -25 20 -22 10 -25 9 -25 -8 0 -11 -4 -20 -9 -20 -15 0 -101
71 -100 83 0 9 2 9 6 0 2 -7 10 -13 16 -13 7 1 1 10 -13 21 -14 12 -26 16 -28
10 -5 -14 -42 -15 -42 -1 0 6 -11 10 -24 10 -14 0 -27 4 -31 9 -10 18 11 20
43 4 18 -9 35 -13 38 -10 6 5 -35 48 -61 65 -19 13 -92 107 -99 128 -11 37
-16 117 -8 128 5 6 9 22 10 35 0 13 7 31 15 40 7 9 25 36 39 61 15 25 42 61
61 80 19 19 64 81 100 136 36 56 80 112 98 125 17 13 52 43 77 67 43 40 44 44
39 87 -6 39 -4 43 11 38 14 -6 15 -4 4 9 -10 12 -10 18 -1 23 6 4 15 2 19 -4
9 -16 52 -6 105 24 22 12 81 30 130 39 50 9 109 21 133 26 23 6 61 10 84 10
23 0 55 4 72 9 103 32 187 52 195 46 6 -3 66 13 133 36 103 36 135 42 193 41
95 -2 110 -19 102 -115 -5 -56 -2 -76 13 -105 25 -46 36 -118 21 -136 -6 -7
-8 -27 -5 -44 4 -18 0 -48 -10 -74 -11 -30 -14 -52 -8 -73 6 -19 5 -37 -2 -48
-8 -13 -8 -20 4 -27 10 -6 11 -10 3 -10 -7 0 -13 -8 -13 -17 0 -18 -14 -67
-36 -123 -8 -19 -21 -66 -29 -103 -9 -38 -28 -101 -44 -140 -15 -40 -31 -85
-35 -102 -4 -16 -27 -60 -52 -97 -24 -37 -44 -76 -44 -86 0 -19 -29 -52 -46
-52 -19 -1 -82 -66 -88 -92 -6 -25 -4 -28 21 -28 30 0 139 32 176 51 37 19 86
79 108 129 5 14 21 35 35 48 13 13 24 31 24 40 0 10 6 26 14 37 7 11 16 31 19
45 3 14 24 77 46 141 22 64 40 125 41 135 0 11 5 59 12 108 8 66 9 93 0 106
-8 13 -8 35 -2 76 5 31 7 60 5 64 -2 4 4 24 15 45 12 24 16 43 11 54 -16 31
-23 101 -12 115 7 8 14 24 16 36 7 36 34 70 56 70 11 0 29 4 39 10 10 5 52 17
92 25 40 9 83 22 95 30 12 8 31 15 41 15 10 0 40 14 66 31 44 30 50 31 86 20
55 -16 204 1 305 34 131 44 320 67 455 55 19 -2 56 0 81 5 40 6 49 4 66 -14
17 -19 19 -32 15 -94 -4 -66 -2 -75 23 -111 l27 -39 -17 -66 c-16 -59 -16 -88
-7 -274 10 -203 11 -209 41 -261 l29 -53 -9 -105 c-11 -126 1 -300 29 -443 47
-233 68 -420 53 -462 -10 -27 -10 -37 3 -55 22 -31 21 -68 -1 -70 -10 0 -22
-2 -28 -3 -5 -2 -21 -3 -35 -4 -41 -2 -50 -13 -44 -53 6 -35 7 -35 54 -35 63
0 73 -8 67 -50 -8 -49 21 -286 38 -320 8 -15 15 -40 15 -54 0 -14 6 -48 14
-75 7 -27 14 -71 15 -99 1 -27 6 -113 12 -189 6 -77 9 -158 6 -180 -9 -62 -55
-166 -94 -211 -76 -87 -85 -95 -120 -95 -48 0 -93 -22 -133 -65 -33 -35 -34
-38 -16 -49 37 -22 66 -48 66 -57 0 -5 -9 -17 -20 -26 -23 -20 -27 -45 -5 -37
8 4 15 1 15 -5 0 -18 -31 -26 -40 -10 -7 11 -10 10 -15 -3 -4 -9 -19 -20 -34
-23 -23 -5 -27 -10 -23 -30 5 -26 -15 -34 -34 -15 -6 6 -19 1 -37 -16 -34 -31
-34 -44 -2 -44 40 0 111 38 149 80 19 21 50 46 70 55 42 20 110 98 155 178 18
31 55 83 82 115 27 31 54 73 61 92 6 19 19 50 30 68 10 18 18 41 18 52 0 10 7
23 16 28 11 6 17 34 22 118 12 205 7 257 -38 379 -12 32 -44 196 -48 248 -7
78 6 90 34 31 12 -28 30 -57 39 -64 15 -12 16 -1 11 119 -4 125 -3 134 16 149
12 10 29 25 40 35 10 9 20 16 23 16 3 -1 42 2 87 6 79 6 164 36 181 63 11 17
30 15 24 -2 -8 -20 22 -25 116 -19 45 3 100 4 122 2 22 -2 76 -3 120 -4 73 0
85 3 130 31 28 17 76 36 107 43 31 7 68 21 81 32 14 10 37 19 52 19 25 0 81
-31 97 -55 12 -15 9 -235 -2 -275 -6 -19 -11 -139 -12 -265 -3 -266 4 -298 55
-293 28 3 31 8 48 68 19 67 27 140 31 270 3 70 1 76 -20 85 -27 12 -23 41 12
89 34 45 41 72 37 158 -2 43 0 106 4 140 7 55 12 68 45 100 37 37 75 49 82 26
5 -15 92 -12 118 4 15 10 26 9 54 -5 42 -19 43 -28 15 -74 -17 -27 -19 -36 -9
-48 7 -8 19 -48 26 -89 14 -70 13 -78 -4 -118 -36 -83 -40 -112 -38 -330 1
-231 2 -237 52 -252 16 -5 24 0 34 21 24 51 31 116 34 308 3 178 5 194 30 258
15 38 28 88 30 111 9 87 18 114 52 147 25 24 43 33 71 34 50 2 232 23 308 36
33 5 74 12 92 15 18 2 65 11 105 20 72 15 91 18 197 28 29 3 61 12 71 21 21
19 113 34 176 28 24 -1 62 3 86 12 24 8 98 17 166 21 105 6 122 9 120 23 -2 9
-14 17 -28 19 -55 7 -53 15 5 33 79 26 227 47 254 38 22 -9 27 -24 11 -34 -5
-3 -7 -12 -4 -19 3 -9 -6 -18 -25 -24 -35 -12 -42 -32 -12 -32 25 0 51 -37 51
-72 0 -16 -11 -70 -24 -121 -13 -50 -26 -135 -30 -187 -3 -52 -14 -131 -26
-174 -11 -44 -20 -96 -20 -115 0 -20 -12 -106 -26 -191 -15 -85 -29 -168 -31
-185 -9 -51 -19 -56 -107 -54 -201 6 -336 -32 -425 -119 -28 -27 -68 -35 -176
-36 -109 -1 -111 -2 -183 -41 -40 -22 -94 -57 -120 -77 -26 -21 -72 -54 -102
-75 -30 -20 -60 -44 -66 -52 -7 -9 -24 -29 -39 -46 -65 -74 -96 -202 -93 -381
2 -54 -1 -129 -6 -166 -15 -115 37 -377 81 -405 13 -8 23 -20 23 -25 0 -6 10
-26 21 -45 18 -29 23 -33 31 -19 14 25 46 19 81 -15 27 -26 28 -30 10 -24 -12
3 -24 1 -27 -4 -4 -7 30 -8 97 -5 101 5 103 5 129 -21 35 -35 80 -40 199 -22
164 26 255 85 394 256 30 37 55 75 55 83 0 8 19 35 43 59 48 48 79 126 70 171
-4 23 -2 28 15 28 26 0 32 9 37 61 2 27 11 46 24 55 29 21 81 191 81 266 0 33
11 98 24 146 14 48 27 113 31 144 3 31 12 61 18 66 19 15 192 23 206 9 9 -9
17 -8 32 1 11 7 28 10 39 7 10 -3 34 4 53 15 31 19 50 21 174 20 76 -1 189 1
251 3 62 3 158 1 215 -5 200 -20 391 -17 306 5 -12 3 -19 11 -17 18 4 13 196
21 204 8 2 -4 77 -5 167 -3 134 5 175 10 238 30 61 19 87 22 140 18 53 -5 71
-3 93 11 21 14 26 24 22 41 -8 29 -7 29 88 45 55 9 87 20 103 35 29 27 24 31
-55 40 -34 3 -62 9 -62 12 0 2 8 11 18 18 22 17 6 47 -29 53 -28 4 -167 -18
-191 -31 -10 -5 -72 -22 -139 -39 -114 -29 -126 -30 -203 -20 -72 10 -86 9
-133 -9 -29 -11 -87 -21 -135 -24 -46 -2 -117 -10 -158 -16 -41 -6 -232 -13
-425 -15 -192 -2 -395 -7 -450 -11 -55 -5 -116 -7 -135 -6 -19 1 -58 2 -87 2
-28 0 -54 4 -57 9 -4 5 0 52 9 103 8 51 15 150 15 219 0 69 4 139 10 155 5 16
15 61 20 99 6 39 15 97 20 130 13 89 28 164 44 223 12 40 12 59 4 77 -9 19 -7
29 6 49 9 14 16 35 16 46 0 24 16 32 125 57 65 15 80 22 80 37 0 34 -30 43
-80 25 -36 -13 -48 -14 -62 -4 -15 11 -15 13 8 26 17 9 61 12 146 11 82 -1
137 3 170 13 68 21 192 20 200 -1 4 -10 -4 -24 -23 -40 l-29 -23 35 -1 c19 0
52 9 73 20 23 13 56 20 90 20 29 0 79 7 110 15 32 8 88 15 125 15 98 1 242 36
242 59 0 5 -7 17 -16 26 -15 15 -15 17 2 29 18 13 161 29 176 20 13 -8 -1 -24
-21 -24 -20 0 -37 -39 -18 -41 97 -6 266 20 298 48 8 7 23 13 33 13 9 0 21 11
26 24 12 32 40 37 67 13 19 -17 27 -18 47 -9 16 7 27 7 34 0 8 -8 141 -20 210
-19 6 1 31 1 54 2 29 1 45 -3 54 -16 12 -16 14 -16 42 4 37 26 44 26 59 2 19
-31 51 -33 70 -4 16 24 18 24 30 7 17 -23 114 -36 173 -23 25 6 71 12 104 15
32 2 63 7 70 12 6 5 43 7 81 5 39 -2 95 -5 125 -7 74 -3 93 -12 86 -42 -6 -23
-5 -24 58 -24 72 0 215 25 230 40 6 6 1 18 -16 33 -14 13 -27 29 -29 36 -4 12
-99 23 -189 23 -31 0 -50 15 -50 39 0 22 16 21 88 -4 23 -8 42 -11 42 -6 0 5
12 9 26 9 14 0 23 -4 19 -10 -9 -15 32 -12 68 4 48 21 128 46 149 46 26 0 22
19 -4 25 -13 3 -68 1 -123 -5 -136 -14 -408 -16 -412 -4 -2 6 27 16 64 23 80
16 103 26 103 46 0 19 -39 19 -64 0 -16 -12 -22 -12 -47 0 -36 19 -72 19 -110
0 -34 -18 -99 -11 -99 11 0 19 -10 23 -102 39 -62 11 -145 13 -328 11 -240 -4
-280 -8 -280 -28 0 -6 -6 -6 -14 1 -8 7 -29 10 -48 7 -18 -3 -60 -8 -93 -10
-33 -3 -76 -11 -95 -19 -19 -8 -40 -13 -46 -10 -6 2 -59 -5 -117 -15 -59 -11
-117 -17 -130 -15 -14 3 -39 -3 -56 -12 -18 -9 -41 -13 -51 -10 -11 3 -36 2
-57 -4 -74 -20 -204 -41 -251 -41 -62 0 -94 -10 -88 -26 4 -10 -3 -9 -29 2
-43 18 -59 18 -98 0 -18 -8 -50 -17 -72 -19 -271 -31 -323 -40 -353 -58 -18
-10 -45 -19 -59 -19 -15 0 -45 -8 -67 -18 -67 -30 -134 -44 -157 -32 -11 6
-17 15 -14 20 3 5 10 57 15 117 6 59 17 140 26 179 21 97 14 308 -12 378 -22
56 -90 115 -200 172 -61 32 -72 34 -163 34 -88 0 -100 2 -131 25 -70 51 -117
20 -137 -92 -7 -37 -17 -124 -23 -193 -7 -72 -22 -159 -36 -206 -13 -45 -24
-92 -24 -103 0 -12 -7 -57 -16 -99 -15 -77 -17 -81 -93 -158 -13 -13 -33 -24
-43 -24 -11 0 -33 -14 -49 -31 -37 -40 -64 -33 -56 14 3 22 -2 44 -19 73 -20
36 -24 59 -28 163 -4 102 -8 125 -25 147 -11 14 -25 42 -32 62 -6 20 -24 54
-40 74 -29 37 -37 72 -19 83 17 11 11 30 -23 68 -35 40 -52 46 -61 22 -3 -8
-14 -15 -24 -15 -20 0 -62 39 -62 58 0 15 31 30 50 25 10 -3 8 1 -4 11 -27 22
-38 20 -116 -14 -38 -17 -72 -30 -77 -30 -12 0 -53 -77 -53 -100 0 -20 -44
-60 -65 -60 -20 0 -144 -103 -173 -144 -24 -35 -27 -48 -30 -141 -4 -97 -2
-106 22 -148 22 -37 25 -52 20 -86 -5 -34 -2 -48 18 -79 34 -51 68 -118 68
-135 0 -20 -71 -47 -126 -47 -27 0 -68 -9 -92 -20 -51 -23 -65 -19 -87 27 -14
30 -16 56 -12 162 3 70 11 140 17 156 6 16 10 61 10 100 -2 54 4 86 24 139 21
56 27 92 31 187 l4 117 -30 -11 c-63 -24 -76 -50 -103 -207 -14 -80 -30 -161
-36 -180 -21 -72 -54 -308 -55 -398 -1 -66 -5 -96 -14 -101 -7 -5 -39 -12 -70
-15 -32 -4 -79 -15 -105 -25 -46 -17 -125 -16 -143 3 -4 3 -8 106 -9 229 -1
122 -7 247 -13 277 -6 30 -11 118 -10 197 1 78 -2 146 -6 152 -3 6 -1 27 5 47
7 19 8 43 4 52 -4 9 -6 25 -5 36 4 28 -72 -50 -97 -99 -23 -48 -40 -292 -23
-337 28 -73 19 -511 -11 -571 -14 -28 -55 -39 -153 -45 -162 -8 -256 -2 -279
18 -12 10 -14 38 -9 163 10 285 8 308 -43 484 -9 30 -23 61 -33 71 -9 9 -32
36 -49 59 -40 51 -81 73 -137 73 -33 0 -50 -7 -85 -37 -49 -42 -70 -85 -70
-143 0 -40 -1 -42 -55 -66 -30 -14 -57 -30 -60 -35 -9 -14 141 -11 178 5 18 7
62 16 97 20 61 5 67 4 98 -22 l32 -29 2 -109 c2 -117 -10 -177 -56 -263 -95
-183 -87 -172 -160 -212 -38 -21 -80 -51 -93 -68 -33 -42 -95 -71 -170 -78
-60 -6 -63 -5 -63 16 0 13 -11 50 -24 84 -13 34 -27 75 -30 90 -6 25 -11 28
-38 25 -28 -3 -33 -8 -40 -41 -4 -21 -13 -47 -19 -59 l-11 -20 -19 21 c-11 11
-24 33 -30 48 -20 51 -60 223 -54 233 3 5 -1 23 -10 39 -19 38 -19 61 0 61 17
0 39 -46 29 -62 -7 -12 25 -37 49 -38 21 0 22 23 2 40 -8 6 -20 38 -26 71 -6
32 -18 64 -25 70 -8 6 -14 30 -14 54 0 27 -7 51 -20 68 -25 31 -50 204 -47
327 1 73 -2 90 -21 121 -27 43 -37 149 -36 362 1 109 -2 137 -12 137 -16 0
-19 16 -4 25 16 10 12 52 -10 92 -11 21 -20 47 -20 59 0 15 -8 24 -25 28 -28
7 -24 29 3 24 22 -5 62 49 62 82 0 29 27 60 52 60 9 0 34 6 56 14 50 18 90 26
168 35 34 3 69 13 79 21 15 12 18 12 26 -2 6 -10 17 -14 30 -11 24 7 39 -10
39 -44 0 -13 6 -23 14 -23 28 0 77 23 87 41 12 23 25 24 46 4 14 -14 18 -14
37 -1 32 24 106 56 127 56 10 0 54 11 98 25 44 14 93 24 110 23 17 -1 31 -3
31 -4 0 0 -9 -11 -20 -24 -11 -13 -20 -27 -20 -32 0 -9 64 -1 90 12 8 4 35 11
60 15 61 9 128 32 168 57 18 11 35 18 38 16 9 -9 -8 -38 -22 -38 -8 0 -14 -6
-14 -14 0 -8 17 -16 46 -20 92 -12 119 -8 155 24 19 17 45 33 59 35 14 3 49
13 78 21 118 34 163 43 243 50 46 3 91 6 99 5 8 -1 40 -3 70 -4 30 -1 83 -13
117 -25 73 -27 120 -23 152 14 11 13 26 24 32 24 6 0 39 14 73 31 47 24 81 33
146 39 47 4 98 13 113 19 16 6 41 11 57 11 16 0 31 4 34 9 3 4 33 11 66 14 69
8 100 21 100 42 0 18 26 20 33 2 6 -16 152 -13 194 5 16 6 32 10 37 9 5 -1 13
4 17 11 6 10 15 10 39 1 17 -6 32 -7 36 -2 3 5 12 9 21 9 9 0 25 8 35 17 13
12 21 14 26 6 14 -21 71 -26 98 -8 17 11 40 16 65 13 47 -4 49 2 10 25 -32 18
-61 22 -61 8 0 -5 -9 -7 -20 -4 -26 7 -20 29 6 26 10 -1 48 7 85 18 62 18 87
24 169 36 19 3 41 10 47 15 7 6 20 8 29 4 8 -3 28 1 44 9 16 8 42 15 59 15 30
0 49 -14 32 -24 -5 -3 -12 -22 -15 -41 -4 -20 -14 -39 -22 -42 -18 -7 -19 -33
0 -33 7 0 56 43 109 95 91 90 98 95 139 95 24 0 88 7 144 15 55 8 135 15 177
16 70 3 79 5 104 31 23 24 25 30 13 38 -8 5 -26 10 -39 10 l-24 0 28 26 c25
23 32 25 84 18 31 -4 67 -8 81 -8 14 -1 27 -5 29 -11 3 -10 -62 -39 -112 -50
-24 -5 -28 -10 -23 -29 7 -29 -7 -36 -73 -36 -35 0 -53 -5 -66 -20 -10 -11
-16 -22 -13 -25 2 -3 33 -8 68 -12 48 -5 66 -3 74 8 7 9 34 14 81 15 39 0 82
4 97 9 23 6 32 3 47 -16 l19 -23 -37 -13 c-20 -7 -54 -13 -76 -13 -23 0 -58
-9 -80 -20 -33 -17 -59 -20 -157 -20 -65 0 -128 5 -142 11 -18 9 -35 8 -72 -4
-27 -8 -67 -18 -89 -22 -22 -4 -55 -15 -73 -26 -18 -10 -51 -19 -73 -19 -42 0
-56 -23 -20 -35 10 -3 21 -14 24 -25 6 -22 30 -18 102 18 34 17 68 21 225 25
339 10 506 29 575 65 17 9 62 17 103 18 40 2 115 10 165 19 51 9 142 17 202
19 61 2 173 6 250 10 77 4 169 9 205 10 36 1 107 6 159 11 87 8 93 7 89 -10
-2 -14 -12 -19 -37 -19 -19 -1 -36 -6 -38 -13 -4 -12 20 -13 268 -16 83 -1
134 2 150 10 13 7 36 17 52 23 15 5 27 14 27 19 0 11 -53 23 -85 20 -11 -1
-33 -1 -50 0 -24 2 -16 8 45 27 41 13 87 24 101 24 15 0 65 7 113 15 68 12
109 13 198 6 141 -12 303 -15 346 -6 18 4 37 16 43 27 10 18 18 20 68 15 31
-4 90 -17 131 -30 41 -13 90 -27 108 -30 29 -6 32 -4 32 17 0 25 -38 66 -62
66 -18 0 -34 17 -57 62 -35 68 -41 70 -317 72 -137 0 -282 -2 -321 -6 -57 -6
-73 -5 -73 6 0 7 -11 23 -24 35 -25 23 -25 23 -93 7 -76 -19 -162 -23 -241
-11 l-53 7 3 37 c2 26 7 35 18 32 67 -19 129 1 94 30 -11 9 -21 10 -32 3 -9
-5 -53 -11 -97 -12 -44 -1 -91 -6 -105 -11 -14 -5 -50 -14 -80 -20 -30 -6 -93
-20 -140 -30 -47 -11 -100 -17 -118 -14 -18 3 -60 -2 -92 -11 -42 -12 -91 -16
-162 -15 -343 9 -423 2 -548 -47 -19 -7 -61 -18 -94 -24 -32 -5 -65 -15 -72
-21 -16 -13 -192 -3 -210 12 -6 5 -48 11 -93 14 -85 6 -183 -9 -271 -40 -25
-9 -74 -23 -110 -31 -36 -8 -82 -22 -103 -31 -37 -16 -46 -16 -147 1 -99 17
-110 17 -138 2 -39 -20 -68 -20 -76 -1 -7 19 -46 19 -72 0 -18 -13 -17 -14 19
-15 20 0 37 -4 37 -9 0 -31 -125 -19 -158 15 -13 13 -26 24 -30 24 -19 0 -47
-31 -47 -52 0 -18 -6 -24 -30 -26 -16 -2 -37 -10 -46 -18 -10 -9 -43 -18 -75
-21 -33 -3 -76 -14 -96 -24 -21 -11 -47 -19 -59 -19 -12 0 -31 -8 -41 -17 -14
-13 -21 -14 -30 -5 -16 16 -63 15 -77 -2 -6 -7 -42 -16 -84 -20 -39 -4 -126
-12 -192 -18 -97 -9 -276 -16 -445 -18 -13 0 -39 -5 -57 -11 -19 -6 -84 -12
-146 -14 -155 -5 -268 -15 -289 -26 -10 -5 -35 -9 -56 -8 -20 1 -47 -1 -60 -5
-13 -5 -29 -3 -36 3 -10 9 -15 8 -19 -2 -7 -19 -106 -29 -397 -42 -74 -3 -151
-10 -170 -16 -19 -5 -93 -14 -165 -18 -149 -11 -210 -29 -200 -61 4 -14 2 -20
-9 -20 -9 0 -16 7 -16 16 0 14 -8 16 -52 10 -29 -3 -73 -10 -98 -16 -25 -5
-79 -16 -120 -25 -41 -8 -88 -18 -103 -20 -16 -3 -34 -8 -40 -12 -12 -8 -28
-9 -181 -13 -72 -1 -81 1 -97 21 -25 33 -31 141 -14 232 8 43 16 121 17 175 3
96 2 98 -36 172 -45 86 -73 114 -135 142 -50 21 -76 17 -67 -10 4 -12 0 -10
-14 6 -15 19 -26 22 -57 18 -56 -7 -109 -24 -123 -41 -17 -21 -30 -19 -30 4 0
11 -4 23 -10 26 -17 11 -11 83 15 177 15 50 30 140 36 200 5 61 12 114 14 118
9 14 35 177 35 217 0 21 1 51 3 68 3 38 -22 44 -46 10z m-850 -110 c14 -10 24
-12 28 -5 11 17 22 11 27 -15 7 -32 -5 -40 -34 -22 -13 8 -35 17 -50 21 -31 7
-39 36 -10 36 10 0 27 -7 39 -15z m1033 -794 c33 -13 55 -32 83 -72 l39 -54
-7 -105 c-3 -58 -10 -118 -15 -135 -5 -16 -13 -63 -19 -104 -17 -114 -38 -168
-69 -179 -61 -23 -164 -37 -271 -37 -134 0 -144 6 -122 77 7 24 18 76 24 116
9 63 8 78 -7 109 -17 35 -16 36 7 72 28 42 59 115 76 178 8 31 24 52 58 80 26
21 55 46 65 56 24 23 98 22 158 -2z m7387 -74 c4 -8 16 -16 26 -20 26 -10 21
-31 -5 -22 -13 4 -35 9 -50 12 -31 6 -34 13 -16 31 16 16 35 15 45 -1z m-227
-1 c0 -2 3 -11 6 -20 5 -13 -1 -16 -25 -16 -46 0 -40 36 7 39 6 1 12 -1 12 -3z
m-1960 -35 c0 -15 -29 -33 -45 -28 -8 4 -29 0 -47 -7 -49 -20 -118 -30 -118
-17 0 11 55 38 105 51 42 11 105 12 105 1z m796 -33 c13 -20 -28 -38 -88 -38
-62 0 -67 4 -41 32 19 21 117 26 129 6z m-2080 -101 c-31 -10 -84 0 -70 13 14
13 67 17 83 6 10 -8 7 -12 -13 -19z m2634 -3 c0 -19 -71 -38 -115 -30 -53 10
-39 29 31 42 65 11 84 9 84 -12z m-4186 -205 c8 -8 7 -13 -2 -16 -7 -3 -21
-13 -30 -23 -25 -26 -54 -29 -113 -14 -55 15 -99 12 -99 -6 0 -6 6 -10 14 -10
7 0 19 -6 25 -14 9 -11 -2 -14 -66 -20 -43 -3 -103 -10 -133 -16 -93 -16 -217
-28 -410 -40 -176 -10 -286 -21 -358 -36 -27 -5 -31 -4 -26 9 7 18 68 42 84
32 5 -3 17 -2 27 3 11 7 25 6 40 -1 19 -8 27 -6 46 11 13 12 31 22 41 22 10 0
32 6 49 14 18 8 66 17 107 20 143 11 185 18 210 36 22 16 45 18 163 17 127 -2
153 2 127 18 -6 4 -8 10 -6 14 7 10 67 1 84 -12 9 -7 18 -5 30 5 9 9 24 18 32
22 24 9 152 -2 164 -15z m174 0 c2 -11 -7 -18 -29 -23 -39 -7 -39 -7 -28 22
10 27 52 28 57 1z m72 17 c0 -11 -19 -15 -25 -6 -3 5 1 10 9 10 9 0 16 -2 16
-4z m-4300 -136 c0 -11 -7 -20 -15 -20 -15 0 -21 21 -8 33 12 13 23 7 23 -13z
m2645 -44 c19 -14 19 -14 0 -50 l-20 -36 -82 0 c-45 0 -111 -7 -147 -15 -35
-8 -72 -12 -81 -9 -28 11 -10 29 34 32 23 2 57 12 74 23 18 10 42 19 53 19 12
0 46 11 75 24 64 29 70 30 94 12z m-435 -121 c0 -8 -9 -15 -20 -15 -20 0 -26
11 -13 23 12 13 33 7 33 -8z m-1225 -184 c10 -18 -39 -34 -96 -32 -66 2 -122
-20 -138 -55 -6 -13 -15 -24 -21 -24 -14 0 -13 13 3 29 10 10 9 12 -3 11 -8
-1 -25 -2 -38 -1 -27 1 -25 23 2 27 10 1 23 7 29 13 6 6 32 11 58 11 26 0 50
4 53 9 4 5 27 9 52 9 25 0 48 3 52 6 9 9 40 7 47 -3z m-394 -56 c10 -16 18
-37 18 -46 1 -21 -54 -69 -80 -69 -12 0 -23 -8 -26 -19 -3 -13 -17 -20 -51
-25 -25 -3 -50 -2 -54 2 -5 5 -14 36 -20 70 -9 49 -9 65 1 75 21 21 104 45
150 43 38 -1 47 -5 62 -31z m5086 -737 c23 -13 65 -44 93 -70 l52 -48 -6 -72
c-4 -40 -8 -158 -10 -263 -1 -110 -7 -212 -15 -242 -12 -51 -13 -52 -66 -68
-30 -8 -80 -17 -112 -19 -32 -2 -99 -7 -149 -11 -64 -6 -93 -4 -98 3 -4 7 3
33 14 59 58 129 95 318 108 545 6 106 11 132 28 155 42 57 95 66 161 31z
m-2927 -206 c0 -13 -12 -22 -22 -16 -10 6 -1 24 13 24 5 0 9 -4 9 -8z m1964
-111 c24 -26 49 -124 49 -191 0 -40 -9 -76 -32 -130 -35 -82 -62 -119 -113
-150 -46 -28 -82 -25 -145 10 -29 17 -60 30 -69 30 -12 0 -15 6 -10 25 4 14 2
33 -4 42 -43 76 -55 195 -26 251 30 57 77 90 151 106 136 30 177 31 199 7z
m-1996 -34 c3 -14 -4 -17 -34 -17 -37 0 -37 0 -19 20 22 24 48 22 53 -3z
m6362 -216 c0 -6 -4 -13 -10 -16 -5 -3 -10 1 -10 9 0 9 5 16 10 16 6 0 10 -4
10 -9z m-329 -39 c51 4 61 -14 23 -38 -27 -18 -111 -22 -177 -8 -29 6 -56 39
-34 42 7 1 35 6 62 10 28 5 58 4 67 0 10 -5 36 -7 59 -6z m-2023 -27 c-3 -3
-9 2 -12 12 -6 14 -5 15 5 6 7 -7 10 -15 7 -18z m-78 -15 c0 -5 -12 -10 -26
-10 -14 0 -23 4 -19 10 3 6 15 10 26 10 10 0 19 -4 19 -10z m450 3 c-1 -16
-28 -43 -43 -43 -19 0 -29 24 -14 39 12 12 57 15 57 4z m45 -4 c4 -6 5 -12 2
-15 -7 -7 -37 7 -37 17 0 13 27 11 35 -2z m-7145 -29 c0 -5 -5 -10 -11 -10 -5
0 -7 5 -4 10 3 6 8 10 11 10 2 0 4 -4 4 -10z m6951 -40 c33 -18 21 -27 -43
-33 -35 -4 -89 -9 -120 -13 -48 -5 -58 -4 -58 9 0 19 22 28 85 37 78 11 115
11 136 0z m-4114 -282 c6 -7 13 -32 16 -55 5 -41 4 -43 -21 -43 -37 1 -62 22
-62 53 0 14 -5 29 -10 32 -18 11 0 25 34 25 19 0 38 -6 43 -12z m1633 -23 c20
-25 -1 -37 -74 -42 -37 -3 -69 -10 -72 -14 -3 -5 -40 -9 -83 -9 -46 0 -82 -5
-89 -12 -17 -17 -36 4 -27 31 5 16 15 21 39 21 17 0 36 4 42 10 5 5 50 12 99
15 48 3 90 7 93 10 11 11 60 4 72 -10z m-1464 -148 c9 -29 -7 -38 -59 -31
l-46 7 14 27 c8 16 20 30 27 33 20 6 57 -14 64 -36z m2352 -1000 c3 -13 -4
-17 -32 -17 -39 0 -50 11 -41 40 6 18 9 18 38 7 18 -8 33 -21 35 -30z m-420
-139 c-5 -15 -65 -34 -75 -24 -4 3 2 13 13 21 24 18 67 20 62 3z m530 -41 c2
-21 -6 -68 -17 -105 -11 -37 -25 -110 -31 -162 -12 -113 -23 -150 -61 -210
-15 -25 -35 -77 -44 -117 -9 -40 -24 -82 -34 -95 -10 -13 -21 -33 -25 -45 -8
-26 -90 -103 -109 -103 -8 0 -27 4 -43 9 -16 5 -83 12 -149 15 -66 3 -130 9
-142 12 -33 9 -28 -1 12 -26 39 -24 46 -50 13 -50 -25 0 -58 27 -58 47 0 32
-29 5 -66 -62 -16 -29 -62 -32 -81 -6 -17 25 -40 27 -71 6 -15 -11 -33 -14
-56 -9 -29 5 -35 10 -35 32 0 15 -2 68 -6 117 -8 114 -6 158 5 169 5 5 6 14 4
21 -3 7 0 16 7 21 9 5 11 -2 6 -28 -6 -41 5 -63 28 -55 10 4 13 12 9 19 -15
24 -14 152 2 175 20 32 17 55 -11 82 -29 27 -33 70 -10 125 17 39 52 49 75 21
7 -8 15 -15 19 -15 4 0 36 26 72 58 47 41 85 65 130 81 35 13 82 31 105 42 23
10 51 19 64 19 12 0 52 9 88 20 63 18 274 39 367 36 39 -1 40 -2 43 -39z
m-1140 -486 c3 -8 -1 -12 -9 -9 -7 2 -15 10 -17 17 -3 8 1 12 9 9 7 -2 15 -10
17 -17z m61 -418 c19 -21 45 -55 58 -75 14 -20 31 -39 39 -42 20 -8 17 -53 -5
-75 -22 -22 -19 -27 27 -46 60 -26 31 -56 -48 -52 -56 4 -71 15 -45 37 23 19
18 44 -14 63 -34 20 -70 91 -81 160 -15 96 4 104 69 30z"/>
<path d="M8927 5513 c-14 -13 -6 -23 17 -23 30 0 42 15 20 24 -20 8 -29 8 -37
-1z"/>
<path d="M9107 5513 c-11 -10 -8 -43 3 -43 6 0 10 11 10 25 0 26 -2 29 -13 18z"/>
<path d="M8525 5489 c-139 -22 -215 -44 -215 -60 0 -13 19 -11 106 12 75 20
191 31 313 30 30 0 59 3 65 8 6 5 20 10 30 12 35 7 -258 4 -299 -2z"/>
<path d="M6110 3441 c-30 -29 -35 -51 -14 -58 10 -3 58 76 50 84 -3 3 -19 -9
-36 -26z"/>
<path d="M6043 3338 c-19 -31 -33 -55 -44 -78 -6 -14 -15 -32 -20 -40 -5 -8
-20 -38 -34 -66 -16 -34 -31 -54 -47 -58 -51 -13 -53 -21 -9 -66 l42 -43 39
41 c31 32 40 49 40 76 0 19 4 37 9 41 5 3 9 18 9 33 -1 15 4 37 11 49 6 12 11
32 11 45 0 13 7 33 15 44 13 20 11 34 -6 34 -4 0 -11 -6 -16 -12z"/>
<path d="M3378 3243 c7 -3 16 -2 19 1 4 3 -2 6 -13 5 -11 0 -14 -3 -6 -6z"/>
<path d="M3418 3238 c9 -9 15 -9 24 0 9 9 7 12 -12 12 -19 0 -21 -3 -12 -12z"/>
<path d="M2792 3229 c18 -7 33 -7 45 0 14 8 9 10 -27 10 -42 -1 -43 -1 -18
-10z"/>
<path d="M3427 3194 c-12 -13 3 -21 28 -17 13 3 22 9 19 14 -6 10 -38 12 -47
3z"/>
<path d="M12560 3164 c0 -9 5 -14 12 -12 18 6 21 28 4 28 -9 0 -16 -7 -16 -16z"/>
<path d="M5590 2693 c13 -12 30 -18 38 -16 18 7 4 20 -33 29 l-30 7 25 -20z"/>
<path d="M5530 2690 c-13 -8 -13 -10 2 -10 9 0 20 5 23 10 8 13 -5 13 -25 0z"/>
<path d="M5423 2664 c-10 -27 11 -35 24 -8 9 19 8 24 -3 24 -8 0 -17 -7 -21
-16z"/>
<path d="M5232 2658 c-7 -7 -28 -11 -47 -10 -19 2 -46 -4 -59 -13 -15 -10 -33
-14 -49 -10 -14 4 -28 2 -31 -4 -4 -6 -18 -11 -32 -11 -14 0 -27 -7 -30 -15
-4 -9 -19 -15 -40 -15 -55 0 -184 -76 -184 -107 0 -19 18 -16 31 5 10 16 16
17 35 8 40 -19 30 -52 -18 -61 -26 -5 -68 -43 -68 -62 0 -7 -8 -13 -18 -13
-11 0 -27 -9 -37 -20 -10 -11 -41 -33 -69 -49 -65 -37 -118 -88 -146 -141 -11
-21 -10 -26 19 -49 26 -22 31 -33 31 -68 0 -27 5 -43 12 -43 16 0 102 93 146
158 26 40 33 55 23 61 -9 6 -7 16 8 42 12 19 23 41 27 49 14 37 23 45 52 46
44 1 87 21 129 60 36 34 37 34 55 14 20 -21 36 -25 54 -12 13 9 27 85 13 77
-5 -4 -9 1 -9 9 0 9 6 16 13 16 7 0 23 9 35 20 12 11 35 20 51 20 16 0 33 5
36 10 3 6 -1 10 -9 10 -21 0 -21 46 0 54 11 4 18 -1 21 -14 3 -11 12 -20 20
-20 16 0 52 38 53 56 0 22 30 24 50 4 25 -25 40 -25 40 -1 0 29 -83 44 -108
19z m-132 -57 c0 -12 -20 -25 -27 -18 -7 7 6 27 18 27 5 0 9 -4 9 -9z m-111
-114 c8 -10 7 -17 -1 -25 -16 -16 -43 -15 -58 3 -10 12 -8 16 11 24 32 13 35
13 48 -2z"/>
<path d="M5325 2504 c-27 -19 -52 -39 -54 -45 -2 -7 1 -9 9 -4 7 4 31 7 54 7
34 -1 49 5 79 32 37 32 37 34 15 40 -37 10 -50 6 -103 -30z"/>
<path d="M4801 2454 c0 -11 3 -14 6 -6 3 7 2 16 -1 19 -3 4 -6 -2 -5 -13z"/>
<path d="M4900 2330 c0 -5 5 -10 10 -10 6 0 10 5 10 10 0 6 -4 10 -10 10 -5 0
-10 -4 -10 -10z"/>
<path d="M4239 2027 c-62 -57 -78 -89 -82 -157 -1 -25 -6 -48 -11 -51 -17 -13
-8 -338 11 -399 16 -49 53 -109 72 -115 36 -11 45 -32 26 -61 -16 -25 -17 -25
-36 -8 -10 9 -20 13 -20 8 -9 -62 -6 -102 10 -124 9 -14 21 -34 25 -45 8 -18
10 -17 22 13 11 26 20 32 43 32 30 0 46 12 34 24 -3 3 -7 27 -7 53 -1 36 -5
47 -15 45 -17 -4 -31 15 -31 41 0 13 6 17 23 15 28 -4 26 15 -10 92 -21 45
-26 71 -27 140 -1 85 0 87 41 150 35 55 107 209 100 216 -1 1 -18 6 -37 11
l-35 9 -3 82 c-3 101 -13 104 -93 29z m20 -141 c8 -10 8 -16 -2 -25 -16 -13
-27 -5 -27 21 0 21 13 23 29 4z"/>
<path d="M4426 2048 c-11 -43 -7 -118 7 -118 30 0 55 30 53 63 -5 65 -47 103
-60 55z"/>
<path d="M4025 1638 c-10 -27 -9 -83 0 -88 6 -3 11 16 11 48 2 51 -2 64 -11
40z"/>
<path d="M10725 1640 c3 -5 15 -10 26 -10 10 0 19 5 19 10 0 6 -12 10 -26 10
-14 0 -23 -4 -19 -10z"/>
<path d="M4042 1445 c6 -41 15 -64 48 -125 l19 -35 1 33 c0 17 -4 32 -8 32
-15 0 -30 57 -19 75 7 13 6 16 -3 10 -9 -6 -10 -1 -5 16 4 13 4 21 0 17 -5 -4
-15 -2 -23 5 -13 10 -15 7 -10 -28z"/>
<path d="M4110 1275 c0 -16 39 -75 50 -75 5 0 10 3 10 8 -1 11 -59 78 -60 67z"/>
<path d="M4326 1076 c6 -16 -30 -41 -45 -31 -5 3 1 -16 14 -43 27 -56 105
-132 136 -132 21 0 21 1 6 18 -10 10 -17 24 -17 30 0 7 -16 22 -35 34 -44 30
-61 65 -41 87 10 11 12 21 5 34 -12 20 -31 23 -23 3z"/>
<path d="M4467 953 c-3 -15 -1 -35 4 -45 5 -9 9 -28 9 -42 0 -14 3 -26 8 -26
8 0 0 125 -9 135 -4 3 -9 -7 -12 -22z"/>
<path d="M4705 970 c-3 -5 -15 -10 -26 -10 -26 0 -24 -14 6 -34 30 -20 32 -36
4 -43 -13 -4 -18 -11 -14 -20 4 -11 1 -13 -11 -9 -8 3 -22 6 -30 6 -8 0 -26
11 -40 25 -25 25 -44 26 -44 1 0 -6 16 -18 35 -25 19 -7 35 -17 35 -22 0 -5 6
-9 14 -9 7 0 27 -7 42 -15 38 -20 84 -20 84 0 0 9 6 18 14 21 8 3 17 16 20 30
7 27 27 31 45 10 9 -11 8 -17 -4 -29 -14 -15 -14 -17 4 -27 24 -12 101 -13
101 -1 0 20 -13 41 -25 41 -7 0 -15 9 -18 21 -3 11 -19 25 -36 32 -17 6 -31
16 -31 22 0 10 -35 45 -45 45 -3 0 -5 -7 -5 -15 0 -8 -7 -15 -15 -15 -9 0 -18
7 -21 15 -7 17 -30 20 -39 5z"/>
<path d="M5085 934 c-21 -7 -57 -10 -81 -8 l-45 4 15 -28 c8 -15 12 -40 9 -55
-4 -22 -2 -26 10 -21 8 3 17 13 19 22 3 10 15 18 28 19 12 1 30 9 39 17 24 22
37 20 55 -6 13 -18 25 -22 66 -21 28 0 57 6 65 13 12 10 15 10 15 0 0 -8 2
-11 5 -9 2 3 2 15 -2 27 -4 17 -9 20 -23 12 -33 -18 -66 -12 -79 14 -17 30
-48 37 -96 20z"/>
<path d="M4530 920 c0 -5 5 -10 10 -10 6 0 10 5 10 10 0 6 -4 10 -10 10 -5 0
-10 -4 -10 -10z"/>
<path d="M4560 850 c0 -5 5 -10 11 -10 5 0 7 5 4 10 -3 6 -8 10 -11 10 -2 0
-4 -4 -4 -10z"/>
</g>
</svg>
