<?xml version="1.0" standalone="no"?>
<!DOCTYPE svg PUBLIC "-//W3C//DTD SVG 20010904//EN"
 "http://www.w3.org/TR/2001/REC-SVG-20010904/DTD/svg10.dtd">
<svg version="1.0" xmlns="http://www.w3.org/2000/svg"
 width="427.000000pt" height="427.000000pt" viewBox="0 0 427.000000 427.000000"
 preserveAspectRatio="xMidYMid meet">
<metadata>
Created by potrace 1.16, written by Peter Selinger 2001-2019
</metadata>
<g transform="translate(0.000000,427.000000) scale(0.100000,-0.100000)"
fill="#000000" stroke="none">
<path d="M2718 2522 c1 -417 3 -890 5 -1052 1 -162 3 176 5 752 1 576 -1 1049
-5 1051 -5 3 -7 -335 -5 -751z"/>
<path d="M2274 3247 c-3 -8 -3 -243 -1 -523 l3 -509 27 -80 c31 -91 32 -97 14
-70 -32 48 -102 219 -237 575 -48 127 -106 275 -231 588 -8 22 -10 22 -229 22
-242 0 -230 4 -205 -65 18 -49 18 -45 0 -45 -8 0 -15 5 -15 12 0 6 -2 9 -6 6
-6 -7 -6 -2090 1 -2096 5 -5 208 13 338 30 l87 12 0 466 c0 385 -3 475 -15
516 -19 62 -18 74 1 49 23 -29 54 -100 114 -260 50 -136 88 -232 185 -478 26
-65 44 -125 41 -133 -3 -8 -2 -13 3 -10 5 3 18 -18 30 -47 45 -110 27 -100
206 -119 88 -9 197 -20 243 -24 l82 -7 0 1102 0 1101 -215 0 c-171 0 -217 -3
-221 -13z"/>
</g>
</svg>
